<svg width="14" height="14" viewBox="0 0 14 14" fill="none" xmlns="http://www.w3.org/2000/svg">
<path fill-rule="evenodd" clip-rule="evenodd" d="M2.21898 7.257C2.21907 6.28108 2.50076 5.32591 3.03024 4.5061C3.55972 3.6863 4.31451 3.03669 5.20403 2.63522C6.09356 2.23375 7.08003 2.09748 8.04508 2.24275C9.01013 2.38802 9.91277 2.80866 10.6447 3.45421C11.3766 4.09976 11.9067 4.94278 12.1714 5.88213C12.436 6.82148 12.4241 7.81725 12.1368 8.74995C11.8496 9.68265 11.2994 10.5127 10.5521 11.1404C9.80488 11.7681 8.89238 12.1669 7.92411 12.2889V8.52481H9.19191C9.36003 8.52481 9.52127 8.45802 9.64015 8.33914C9.75903 8.22026 9.82582 8.05902 9.82582 7.8909C9.82582 7.72278 9.75903 7.56155 9.64015 7.44267C9.52127 7.32379 9.36003 7.257 9.19191 7.257H7.92411V5.98919C7.92411 5.82107 7.99089 5.65984 8.10977 5.54096C8.22865 5.42208 8.38989 5.35529 8.55801 5.35529H8.87496C9.04308 5.35529 9.20432 5.2885 9.3232 5.16962C9.44208 5.05075 9.50886 4.88951 9.50886 4.72139C9.50886 4.55327 9.44208 4.39203 9.3232 4.27315C9.20432 4.15427 9.04308 4.08748 8.87496 4.08748H8.55801C8.05365 4.08748 7.56994 4.28784 7.2133 4.64448C6.85666 5.00112 6.6563 5.48483 6.6563 5.98919V7.257H5.38849C5.22037 7.257 5.05914 7.32379 4.94026 7.44267C4.82138 7.56155 4.75459 7.72278 4.75459 7.8909C4.75459 8.05902 4.82138 8.22026 4.94026 8.33914C5.05914 8.45802 5.22037 8.52481 5.38849 8.52481H6.6563V12.2889C5.43078 12.1344 4.30377 11.5379 3.48679 10.6115C2.6698 9.685 2.219 8.49223 2.21898 7.257ZM7.2902 13.596C10.7913 13.596 13.6292 10.758 13.6292 7.257C13.6292 3.75595 10.7913 0.917969 7.2902 0.917969C3.78916 0.917969 0.951172 3.75595 0.951172 7.257C0.951172 10.758 3.78916 13.596 7.2902 13.596Z" fill="white"/>
</svg>
